<?xml version="1.0" encoding="UTF-8"?>
<svg version="1.1" xmlns="http://www.w3.org/2000/svg" width="16" height="16">
<path d="M0 0 C4.0743356 0.84881992 5.54405875 2.30225596 8 5.625 C8.625 8.625 8.625 8.625 8 11.625 C5.54405875 14.94774404 4.0743356 16.40118008 0 17.25 C-4.0743356 16.40118008 -5.54405875 14.94774404 -8 11.625 C-8.625 8.625 -8.625 8.625 -8 5.625 C-5.54405875 2.30225596 -4.0743356 0.84881992 0 0 Z " fill="#0591CE" transform="translate(8,-0.625)"/>
<path d="M0 0 C5.28 0 10.56 0 16 0 C13 5 13 5 11 6 C8.1875 6.375 8.1875 6.375 5 6 C2.125 3.5625 2.125 3.5625 0 1 C0 0.67 0 0.34 0 0 Z " fill="#72340F" transform="translate(0,10)"/>
<path d="M0 0 C2.875 2.375 2.875 2.375 5 5 C5 5.66 5 6.32 5 7 C1.125 5.125 1.125 5.125 0 4 C-2.9157691 3.58297878 -2.9157691 3.58297878 -6 4 C-7.91256712 5.88077873 -7.91256712 5.88077873 -9 8 C-9.66 7.67 -10.32 7.34 -11 7 C-8.97027025 1.06694381 -6.36973828 -0.89176336 0 0 Z " fill="#056289" transform="translate(11,0)"/>
<path d="M0 0 C2.97 0.495 2.97 0.495 6 1 C6 1.99 6 2.98 6 4 C3.36 4 0.72 4 -2 4 C-1.34 2.68 -0.68 1.36 0 0 Z " fill="#03B3FE" transform="translate(10,6)"/>
</svg>
